<svg xmlns="http://www.w3.org/2000/svg" xmlns:xlink="http://www.w3.org/1999/xlink" width="180.586" height="56.912" viewBox="0 0 180.586 56.912">
  <defs>
    <clipPath id="clip-path">
      <path id="Path_2002" data-name="Path 2002" d="M164.953,205.156h54v54h-54Zm0,0" fill="#fff"/>
    </clipPath>
  </defs>
  <g id="surface1" transform="translate(-38.367 -202.244)">
    <g id="Group_43" data-name="Group 43" clip-path="url(#clip-path)">
      <path id="Path_2001" data-name="Path 2001" d="M218.367,205.137H207.789a.558.558,0,0,0-.555.558v10.02H197.215a.557.557,0,0,0-.555.555v10.019H186.641a.555.555,0,0,0-.555.559v10.015h-10.02a.558.558,0,0,0-.558.559v10.019H165.492a.556.556,0,0,0-.558.555V258.57a.555.555,0,0,0,.558.555h52.875a.554.554,0,0,0,.555-.555V205.7A.558.558,0,0,0,218.367,205.137Zm0,0" fill="#fff"/>
    </g>
    <g id="Group_45" data-name="Group 45">
      <g id="Group_44" data-name="Group 44" transform="translate(37.5 224.588)">
        <path id="Path_2003" data-name="Path 2003" d="M32.84-20.633c-1.875,5.652-4,12.289-6.328,19.344-2.1-6.242-4.086-13.074-5.906-19.344a22.4,22.4,0,0,1-4.281,0c-1.793,6.3-3.781,12.793-5.937,19.289-2.211-6.523-4.34-13.133-6.3-19.289a12.682,12.682,0,0,1-3.219,0C3.277-14.559,5.766-6.973,8.121,0h4.535c1.762-5.824,3.777-13.019,5.766-18.758C20.5-13.019,22.48-5.8,24.219,0h4.422c2.465-7.25,5.012-14.84,7.336-20.633A12.048,12.048,0,0,1,32.84-20.633Zm0,0" fill="#fff"/>
      </g>
    </g>
    <g id="Group_47" data-name="Group 47">
      <g id="Group_46" data-name="Group 46" transform="translate(73.783 224.588)">
        <path id="Path_2004" data-name="Path 2004" d="M25,0c-.223-5.934-.223-14.644-.055-20.605a10.872,10.872,0,0,1-3.023,0c.086,2.828.141,6.242.141,9.715-5.434.168-11.086.168-16.434-.027,0-3.445.055-6.887.109-9.687a10.677,10.677,0,0,1-3,0C2.91-14.644,2.91-5.965,2.742,0H5.8c-.086-2.547-.141-5.6-.141-8.734,5.375-.227,11.031-.227,16.406-.027,0,3.133-.055,6.187-.141,8.762Zm0,0" fill="#fff"/>
      </g>
    </g>
    <g id="Group_49" data-name="Group 49">
      <g id="Group_48" data-name="Group 48" transform="translate(100.939 224.588)">
        <path id="Path_2005" data-name="Path 2005" d="M26.039,0c-3.5-6.832-6.918-13.773-10.191-20.605a23.6,23.6,0,0,1-4.871,0C7.727-13.773,4.367-6.832.867,0h3.3L6.5-4.984c4.113-.055,9.856-.055,13.914,0C21.082-3.445,21.727-1.961,22.621,0ZM7.363-6.859c2.07-4.453,4.145-8.875,5.965-12.289,3.387,6.269,5.039,9.629,6.242,12.289C15.93-6.8,11.059-6.8,7.363-6.859Zm0,0" fill="#fff"/>
      </g>
    </g>
    <g id="Group_51" data-name="Group 51">
      <g id="Group_50" data-name="Group 50" transform="translate(127.284 224.588)">
        <path id="Path_2006" data-name="Path 2006" d="M11.281,0h3.2c-.168-5.4-.2-12.4-.141-18.562,4.059.027,7.5.168,10.891.391a8.754,8.754,0,0,1,0-2.434c-8.68.109-15.988.109-24.668,0a8.756,8.756,0,0,1,0,2.434c3.359-.223,6.8-.363,10.809-.391C11.449-12.43,11.422-5.43,11.281,0Zm0,0" fill="#fff"/>
      </g>
    </g>
    <g id="Group_53" data-name="Group 53">
      <g id="Group_52" data-name="Group 52" transform="translate(152.508 224.588)">
        <path id="Path_2007" data-name="Path 2007" d="M2.379-14.812a14.471,14.471,0,0,1,1.539,0c.141-2.488.336-5.008.59-7.531a13.465,13.465,0,0,1-2.633,0C2.1-19.82,2.27-17.3,2.379-14.812Zm0,0" fill="#fff"/>
      </g>
    </g>
    <g id="Group_55" data-name="Group 55">
      <g id="Group_54" data-name="Group 54" transform="translate(158.331 224.588)">
        <path id="Path_2008" data-name="Path 2008" d="M15.344.281c7.055,0,10.723-1.848,10.723-5.742,0-4.7-5.516-5.289-11.789-5.793-6.383-.5-9.125-1.148-9.125-3.922,0-2.461,2.379-3.637,7.7-3.637a36.694,36.694,0,0,1,12.18,2.32,9.692,9.692,0,0,1,0-2.715,46.912,46.912,0,0,0-12.1-1.707c-7.223,0-10.832,1.9-10.832,5.824,0,4.34,4.309,5.121,11.113,5.684,6.074.477,9.828.781,9.828,4,0,2.406-2.242,3.555-7.449,3.555-5.039,0-10.723-1.2-13.3-3.219a13.72,13.72,0,0,1,0,3A36.462,36.462,0,0,0,15.344.281Zm0,0" fill="#fff"/>
      </g>
    </g>
    <g id="Group_57" data-name="Group 57">
      <g id="Group_56" data-name="Group 56" transform="translate(37.5 252.338)">
        <path id="Path_2009" data-name="Path 2009" d="M22.816,0h4.2q-.211-10.289-.086-20.605a10.678,10.678,0,0,1-3,0c.168,6.187.2,12.316.141,18.477-5.8-6.1-11.508-12.234-17.105-18.477a23.9,23.9,0,0,1-4.23,0q.17,10.33,0,20.605H5.766c-.168-6.1-.2-12.234-.109-18.309C11.508-12.262,17.191-6.16,22.816,0Zm0,0" fill="#fff"/>
      </g>
    </g>
    <g id="Group_59" data-name="Group 59">
      <g id="Group_58" data-name="Group 58" transform="translate(66.672 252.338)">
        <path id="Path_2010" data-name="Path 2010" d="M2.742,0H23.6a21.141,21.141,0,0,1,0-2.633c-4.957.363-12.094.617-17.8.59-.059-2.41-.086-4.984-.086-7.254,5.32-.055,11.285.059,15.875.168a14.94,14.94,0,0,1,0-2.211c-4.562.141-10.527.254-15.875.2,0-2.492,0-4.953.055-7.445,5.684-.027,12.879.223,17.836.617a20.272,20.272,0,0,1,0-2.578c-5.711.2-16.016.113-20.859-.055C2.91-14.84,2.91-6.242,2.742,0Zm0,0" fill="#fff"/>
      </g>
    </g>
    <g id="Group_61" data-name="Group 61">
      <g id="Group_60" data-name="Group 60" transform="translate(91.589 252.338)">
        <path id="Path_2011" data-name="Path 2011" d="M.84,0H4.926c2.66-2.941,5.379-5.906,8.148-8.848,2.774,2.941,5.543,5.906,8.2,8.848h4.2C21.809-3.5,18.254-6.945,14.84-10.441c3.387-3.363,6.887-6.8,10.527-10.164a24.8,24.8,0,0,1-4.031,0c-2.633,2.855-5.293,5.738-8.066,8.594C10.5-14.867,7.785-17.75,5.094-20.605a24.8,24.8,0,0,1-4.031,0c3.613,3.387,7.113,6.746,10.5,10.133C8.09-6.973,4.535-3.473.84,0Zm0,0" fill="#fff"/>
      </g>
    </g>
    <g id="Group_63" data-name="Group 63">
      <g id="Group_62" data-name="Group 62" transform="translate(117.429 252.338)">
        <path id="Path_2012" data-name="Path 2012" d="M11.281,0h3.2c-.168-5.4-.2-12.4-.141-18.562,4.059.027,7.5.168,10.891.391a8.754,8.754,0,0,1,0-2.434c-8.68.109-15.988.109-24.668,0a8.756,8.756,0,0,1,0,2.434c3.359-.223,6.8-.363,10.809-.391C11.449-12.43,11.422-5.43,11.281,0Zm0,0" fill="#fff"/>
      </g>
    </g>
  </g>
</svg>
