<?xml version="1.0" encoding="iso-8859-1"?>
<!-- Generator: Adobe Illustrator 19.0.0, SVG Export Plug-In . SVG Version: 6.00 Build 0)  -->
<svg xmlns="http://www.w3.org/2000/svg" xmlns:xlink="http://www.w3.org/1999/xlink" version="1.1" id="Layer_1" x="0px" y="0px" viewBox="0 0 505.08 505.08" style="enable-background:new 0 0 505.08 505.08;" xml:space="preserve" width="512" height="512">
<path d="M502.127,80.396l-101.99-78.83c-2.265-1.749-5.324-2.058-7.893-0.798c-2.567,1.261-4.194,3.872-4.194,6.732v37.934  c-45.06,8.073-86.004,29.514-118.764,62.263c-26.912,26.912-46.426,59.87-56.914,95.921c-27.598-23.303-60.232-39.544-95.342-47.392  V122.89c0-2.86-1.627-5.472-4.194-6.732c-2.568-1.26-5.63-0.95-7.893,0.798l-46.387,35.853c-3.277,2.533-3.88,7.243-1.348,10.521  c2.534,3.277,7.243,3.881,10.521,1.348l34.3-26.511v24.154c0,3.59,2.544,6.677,6.068,7.362  c37.32,7.256,71.873,24.617,100.197,50.293c-3.204,15.237-4.845,30.91-4.845,46.665v43.326c-4.22-8.683-9.299-17.01-15.223-24.886  c-19.112-25.416-46.28-44.512-76.5-53.771c-2.272-0.695-4.744-0.275-6.656,1.141c-1.913,1.414-3.041,3.652-3.041,6.03v26.794  L19.804,201.72l21.855-16.892c3.277-2.533,3.88-7.243,1.347-10.521s-7.243-3.881-10.521-1.348L2.953,195.786  c-1.837,1.42-2.913,3.612-2.913,5.934s1.076,4.514,2.913,5.934l101.99,78.83c2.265,1.75,5.325,2.059,7.893,0.798  s4.194-3.872,4.194-6.732v-31.51c23.3,9.172,44.06,24.909,59.209,45.055c17.802,23.672,27.211,51.845,27.211,81.475v122.01  c0,4.142,3.357,7.5,7.5,7.5h73.93c4.143,0,7.5-3.358,7.5-7.5v-83.592c0-4.142-3.357-7.5-7.5-7.5s-7.5,3.358-7.5,7.5v76.092h-58.93  V266.64c0-16.103,1.813-32.111,5.388-47.583c8.774-38.016,28.158-72.856,56.055-100.752c32.013-32.003,72.391-52.435,116.769-59.087  c3.672-0.55,6.389-3.704,6.389-7.417V22.776l82.227,63.554l-82.227,63.554V127.05c0-2.29-1.046-4.454-2.84-5.876  c-1.795-1.423-4.142-1.948-6.369-1.426c-32.566,7.624-62.124,26.281-83.228,52.535c-21.431,26.661-33.233,60.171-33.233,94.357  v117.346c0,4.142,3.357,7.5,7.5,7.5s7.5-3.358,7.5-7.5V266.64c0-30.78,10.627-60.953,29.925-84.96  c17.003-21.154,40.086-36.831,65.745-44.818v28.298c0,2.86,1.627,5.472,4.194,6.732c2.568,1.261,5.63,0.95,7.893-0.798l101.99-78.83  c1.837-1.42,2.913-3.612,2.913-5.934S503.964,81.816,502.127,80.396z"/>















</svg>
