<svg id="SvgjsSvg1001" width="288" height="288" xmlns="http://www.w3.org/2000/svg" version="1.1" xmlns:xlink="http://www.w3.org/1999/xlink" xmlns:svgjs="http://svgjs.com/svgjs"><defs id="SvgjsDefs1002"></defs><g id="SvgjsG1008" transform="matrix(0.9167,0,0,0.9167,11.995199523353591,11.995201271057141)"><svg xmlns="http://www.w3.org/2000/svg" enable-background="new 0 0 64 64" viewBox="0 0 64 64" width="288" height="288"><rect width="7.05" height="5.05" x="43.59" y="44.34" fill="#bfbfbf" class="colorefcf8f svgShape"></rect><path fill="#cdcdcd" d="M52.07,42.94c-0.83,2.69-2.68,4.74-4.91,4.74c-2.23,0-4.15-2.1-4.98-4.79c-1.1-0.78-1.35-3.6-0.43-3.57
							c0.21-3.92,2.55-7.01,5.41-7.01c2.86,0,4.97,3.1,5.17,7.03C53.39,38.92,53.28,42.21,52.07,42.94z" class="colorffe09c svgShape"></path><path fill="#535353" d="M51.62,41.32h0.31c0.55-1.96,0.88-4.21,0.69-6.02c-0.45-2.84-2.48-4.23-5.12-4
						c-1.65,0.16-2.81,0.68-3.34,1.64c-1.33-0.82-2.28-0.37-2.67,1.94c-0.3,2.21,0.01,4.47,0.46,6.48l0.38-0.03
						c-0.72-4.85,5.29-7.26,8.45-3.67l-0.27-1.04C51.48,37.62,51.84,39.38,51.62,41.32z" class="color3a556d svgShape"></path><path fill="#f1f1f1" d="M51.18,47.68c-0.01,4.63-2.2,10.48-4.07,16.32c-1.87-5.85-4.06-11.7-4.07-16.32l2.72,4.12l1.35-2.4
					l1.35,2.4L51.18,47.68z" class="colorf2f2f0 svgShape"></path><polygon fill="#acacac" points="49.38 64 44.81 64 46.37 52.07 47.82 52.07" class="coloref736a svgShape"></polygon><polygon fill="#acacac" points="47.84 52.07 46.39 52.07 44.75 49.4 49.48 49.4" class="coloref736a svgShape"></polygon><polygon fill="#dfdfdf" points="47.12 49.4 45.77 51.8 43.05 47.68 43.59 46.82" class="colore0e0de svgShape"></polygon><polygon fill="#dfdfdf" points="51.18 47.68 48.46 51.8 47.12 49.4 50.64 46.82" class="colore0e0de svgShape"></polygon><path fill="#787878" d="M42.04,55.32l0.65-2.59l-1.33-0.69l-0.23-2.92l1.91-1.44c0.01,4.63,2.2,10.48,4.07,16.32
							C45.01,61.45,43.28,58.59,42.04,55.32z" class="color50a0a0 svgShape"></path><path fill="#858585" d="M47.12,64H34.98c-0.94,0-1.65-0.84-1.5-1.77l1.29-7.94c0.17-1.07,0.79-2.01,1.71-2.59
							c1.29-0.81,2.59-1.73,4.65-2.58l0.23,2.92l1.33,0.69l-0.65,2.59C43.28,58.59,45.01,61.45,47.12,64z" class="color5badaf svgShape"></path><path fill="#787878" d="M52.87,52.04l-1.33,0.69l0.65,2.59c-1.24,3.27-2.97,6.12-5.08,8.68c1.87-5.85,4.06-11.7,4.07-16.32
							l1.91,1.44L52.87,52.04z" class="color50a0a0 svgShape"></path><path fill="#858585" d="M47.12,64c2.11-2.55,3.84-5.41,5.08-8.68l-0.65-2.59l1.33-0.69l0.23-2.92c2.06,0.86,3.36,1.77,4.65,2.58
							c0.91,0.58,1.54,1.52,1.71,2.59l1.28,7.95c0.15,0.92-0.56,1.76-1.5,1.76H47.12z" class="color5badaf svgShape"></path><g fill="#000000" class="color000 svgShape"><path fill="#535353" d="M16.25,0C11.78,0,9.7,2.15,8.42,6.12c-1.68,6.3,0.66,11.16,4.1,15.87h6.66
						c3.44-4.71,5.61-9.57,4.58-15.87C22.92,2.27,20.72,0,16.25,0" class="color3a556d svgShape"></path><rect width="7.45" height="4.57" x="12.09" y="14.69" fill="#bfbfbf" class="colorefcf8f svgShape"></rect><path fill="#cdcdcd" d="M10.59,12.9c1.33,2.47,2.71,4.67,5.63,4.52c2.97-0.15,5.6-4.15,4.97-6.53c-1.19-5.1-4.76-1.48-8.57-6.54
					c-1.64,1.02-2.69,2.56-3.09,4.67c-0.82,0.16-1.07,1.38-0.57,2.82C9.34,12.81,10.18,13.38,10.59,12.9z" class="colorffe09c svgShape"></path><path fill="#f1f1f1" d="M24.85,18.99V32.7h-7.77l4.64-14.38C22.94,18.48,23.98,18.7,24.85,18.99z" class="colorf2f2f0 svgShape"></path><path fill="#acacac" d="M21.71 18.32L17.08 32.7h-2.53L9.91 18.32c.16-.02.46-.05.61-.06.07-.01.14-.04.19-.1L11.74 17c.05-.05.12-.07.19-.04l3.89 1.67 3.89-1.67c.06-.03.14-.01.19.04l1.04 1.16c.05.05.12.09.19.1C21.32 18.28 21.52 18.3 21.71 18.32zM6.77 18.99V32.7H3.24V22.58C3.56 20.86 4.66 19.7 6.77 18.99zM28.38 22.58V32.7h-3.53V18.99C26.96 19.7 28.06 20.86 28.38 22.58z" class="coloref736a svgShape"></path><path fill="#f1f1f1" d="M14.55 32.7H6.77V18.99c.87-.3 1.91-.52 3.14-.67L14.55 32.7zM17.37 20.58l-4.76-2.03c-.25-.11-.52.08-.52.34v3.38c0 .27.27.45.52.34L17.37 20.58z" class="colorf2f2f0 svgShape"></path><path fill="#f1f1f1" d="M14.26,20.58l4.76-2.03c0.25-0.11,0.52,0.08,0.52,0.34v3.38c0,0.27-0.27,0.45-0.52,0.34L14.26,20.58z" class="colorf2f2f0 svgShape"></path><path fill="#dfdfdf" d="M16.35,21.85h-1.08c-0.15,0-0.27-0.12-0.27-0.27v-2.06c0-0.15,0.12-0.27,0.27-0.27h1.08
							c0.15,0,0.27,0.12,0.27,0.27v2.06C16.62,21.73,16.5,21.85,16.35,21.85z" class="colore0e0de svgShape"></path><circle cx="15.81" cy="23.51" r=".52" fill="#f1f1f1" class="colorf2f2f0 svgShape"></circle><circle cx="15.81" cy="25.57" r=".52" fill="#f1f1f1" class="colorf2f2f0 svgShape"></circle></g><g fill="#000000" class="color000 svgShape"><path fill="#828282" d="M26.6,44.43H6.1c-1.77,0-3.21,1.44-3.21,3.21c0,1.77,1.44,3.21,3.21,3.21h20.5c1.77,0,3.21-1.44,3.21-3.21
					C29.81,45.87,28.37,44.43,26.6,44.43z M26.6,50.12H6.1c-1.36,0-2.47-1.11-2.47-2.47c0-1.36,1.11-2.47,2.47-2.47h20.5
					c1.36,0,2.47,1.11,2.47,2.47C29.07,49.01,27.96,50.12,26.6,50.12z" class="color828282 svgShape"></path><path fill="#a0a0a0" d="M29.07,47.64c0,1.36-1.11,2.47-2.47,2.47H6.1c-1.36,0-2.47-1.11-2.47-2.47c0-1.36,1.11-2.47,2.47-2.47h20.5
					C27.96,45.17,29.07,46.28,29.07,47.64z" class="color9fd16f svgShape"></path><path fill="#f1f1f1" d="M26.79,48.56H5.91c-0.51,0-0.92-0.41-0.92-0.92l0,0c0-0.51,0.41-0.92,0.92-0.92h20.89
					c0.51,0,0.92,0.41,0.92,0.92l0,0C27.71,48.15,27.3,48.56,26.79,48.56z" class="colorf2f2f0 svgShape"></path><path fill="#acacac" d="M26.79,48.56H12.87c-0.51,0-0.92-0.41-0.92-0.92l0,0c0-0.51,0.41-0.92,0.92-0.92h13.93
					c0.51,0,0.92,0.41,0.92,0.92l0,0C27.71,48.15,27.3,48.56,26.79,48.56z" class="coloref736a svgShape"></path><g fill="#000000" class="color000 svgShape"><path fill="#828282" d="M34.19,16.36c0,1.77,1.44,3.21,3.21,3.21h20.5c1.77,0,3.21-1.44,3.21-3.21s-1.44-3.21-3.21-3.21H37.4
					C35.63,13.14,34.19,14.59,34.19,16.36z M34.93,16.36c0-1.36,1.11-2.47,2.47-2.47h20.5c1.36,0,2.47,1.11,2.47,2.47
					s-1.11,2.47-2.47,2.47H37.4C36.04,18.83,34.93,17.72,34.93,16.36z" class="color828282 svgShape"></path><path fill="#a0a0a0" d="M34.93,16.36c0,1.36,1.11,2.47,2.47,2.47h20.5c1.36,0,2.47-1.11,2.47-2.47s-1.11-2.47-2.47-2.47H37.4
					C36.04,13.88,34.93,14.99,34.93,16.36z" class="color9fd16f svgShape"></path><path fill="#f1f1f1" d="M37.21,17.27h20.89c0.51,0,0.92-0.41,0.92-0.92l0,0c0-0.51-0.41-0.92-0.92-0.92H37.21
					c-0.51,0-0.92,0.41-0.92,0.92l0,0C36.29,16.86,36.7,17.27,37.21,17.27z" class="colorf2f2f0 svgShape"></path><path fill="#acacac" d="M37.21,17.27h13.93c0.51,0,0.92-0.41,0.92-0.92l0,0c0-0.51-0.41-0.92-0.92-0.92H37.21
					c-0.51,0-0.92,0.41-0.92,0.92l0,0C36.29,16.86,36.7,17.27,37.21,17.27z" class="coloref736a svgShape"></path></g></g></svg></g></svg>