<svg xmlns="http://www.w3.org/2000/svg" viewBox="0 0 64 64"><g data-name="Social Group"><line x1="32.01" x2="32.01" y1="37.11" y2="28.77" fill="none" stroke="#000" stroke-linecap="round" stroke-linejoin="round" stroke-width="2"/><path fill="none" stroke="#000" stroke-linecap="round" stroke-linejoin="round" stroke-width="2" d="M22.67,24.18a3.19,3.19,0,0,1,2-1.86c1.45-.3,4.18,0,4.71-1.22a6.1,6.1,0,0,0,.31-2.81h0a6.27,6.27,0,0,1-2.2-5c0-3.21,2-5.82,4.52-5.82s4.52,2.61,4.52,5.82c0,2.92-1.66,5.33-3.84,5.75"/><path fill="none" stroke="#000" stroke-linecap="round" stroke-linejoin="round" stroke-width="2" d="M34.33,18.29h0a6,6,0,0,0,.3,2.8c.51,1.15,3,.95,4.45,1.18"/><line x1="32.01" x2="39.24" y1="37.11" y2="41.29" fill="none" stroke="#000" stroke-linecap="round" stroke-linejoin="round" stroke-width="2"/><line x1="32.01" x2="24.78" y1="37.11" y2="41.27" fill="none" stroke="#000" stroke-linecap="round" stroke-linejoin="round" stroke-width="2"/><path fill="none" stroke="#000" stroke-linecap="round" stroke-linejoin="round" stroke-width="2" d="M32 28.77a12.11 12.11 0 1 1 3.57-.53M40.44 55a3.21 3.21 0 0 1 2-1.87c1.44-.31 4.18 0 4.71-1.25A6.11 6.11 0 0 0 47.44 49h0a6.29 6.29 0 0 1-2.23-5c0-3.21 2-5.83 4.49-5.84S54.23 40.8 54.25 44c0 2.92-1.64 5.34-3.81 5.78"/><path fill="none" stroke="#000" stroke-linecap="round" stroke-linejoin="round" stroke-width="2" d="M52.07 49h0a5.94 5.94 0 0 0 .32 2.79c.51 1.15 3 .94 4.45 1.16M39.24 41.29a12.11 12.11 0 1 1-1.3 3.24M4.88 54.84A3.13 3.13 0 0 1 6.9 53c1.45-.3 4.18 0 4.72-1.21A6 6 0 0 0 11.93 49h0a6.33 6.33 0 0 1-2.18-5c0-3.21 2.05-5.81 4.55-5.8S18.81 40.8 18.79 44c0 2.92-1.69 5.33-3.86 5.74"/><path fill="none" stroke="#000" stroke-linecap="round" stroke-linejoin="round" stroke-width="2" d="M16.57 49v0a6 6 0 0 0 .29 2.8c.5 1.14 2.95 1 4.44 1.19M24.78 41.27a12.13 12.13 0 1 1-2.3-2.88"/></g></svg>